<svg width="196" height="196" viewBox="0 0 196 196" fill="none" xmlns="http://www.w3.org/2000/svg">
<path fill-rule="evenodd" clip-rule="evenodd" d="M98 196C152.124 196 196 152.124 196 98C196 43.8761 152.124 0 98 0C43.8761 0 0 43.8761 0 98C0 152.124 43.8761 196 98 196ZM66.1679 121.716C70.2818 125.961 75.2971 128.202 81.1986 128.469C78.3469 130.751 75.2579 132.642 71.9211 134.103C64.6872 137.269 57.1451 138.381 49.2112 137.48C49.2747 137.53 49.3273 137.575 49.3738 137.614C49.4583 137.685 49.5222 137.739 49.5932 137.781C50.036 138.039 50.4772 138.301 50.9184 138.562C52.0111 139.21 53.1039 139.857 54.2208 140.458C56.2347 141.543 58.3196 142.479 60.4534 143.301C62.7001 144.167 64.9827 144.918 67.3147 145.511C69.3523 146.029 71.4074 146.456 73.489 146.756C75.1446 146.995 76.8026 147.193 78.4725 147.288C78.5924 147.295 78.7125 147.298 78.8325 147.302C78.9688 147.306 79.1051 147.31 79.241 147.319C79.4021 147.33 79.5631 147.345 79.724 147.36C80.0062 147.387 80.2882 147.413 80.5704 147.415C81.594 147.424 82.6179 147.421 83.6416 147.418C83.9899 147.417 84.3381 147.416 84.6863 147.416C84.7421 147.416 84.7976 147.411 84.8531 147.406C84.8785 147.404 84.9039 147.402 84.9293 147.401C85.0695 147.391 85.2096 147.381 85.3497 147.371C85.653 147.349 85.9563 147.327 86.26 147.31C86.467 147.298 86.6743 147.29 86.8815 147.283C87.2261 147.27 87.5706 147.257 87.9136 147.226L88.1505 147.205C89.1463 147.116 90.143 147.026 91.133 146.891C92.4718 146.708 93.8082 146.497 95.1381 146.256C96.8727 145.941 98.5817 145.509 100.281 145.033C102.181 144.502 104.042 143.859 105.876 143.136C108.23 142.207 110.508 141.115 112.723 139.882C114.485 138.901 116.19 137.825 117.83 136.649C119.014 135.799 120.184 134.923 121.303 133.989C122.589 132.916 123.829 131.785 125.055 130.642C125.731 130.011 126.361 129.327 126.989 128.645C127.037 128.593 127.085 128.54 127.134 128.488C127.864 127.695 128.587 126.894 129.282 126.069C131.185 123.805 132.913 121.408 134.474 118.89C135.983 116.454 137.333 113.929 138.517 111.312C139.371 109.424 140.143 107.502 140.818 105.542C141.858 102.526 142.696 99.4539 143.27 96.312C143.515 94.9655 143.737 93.6129 143.91 92.2552C144.022 91.3821 144.091 90.5033 144.16 89.6246C144.186 89.2916 144.212 88.9586 144.24 88.626C144.253 88.4816 144.257 88.3366 144.261 88.1916C144.264 88.0769 144.267 87.9622 144.275 87.8478C144.285 87.6824 144.3 87.517 144.314 87.3517C144.34 87.0542 144.367 86.7568 144.37 86.4592C144.375 85.9842 144.364 85.509 144.353 85.0337C144.347 84.7932 144.341 84.5528 144.338 84.3123C144.333 84.0173 144.331 83.7221 144.328 83.427C144.324 83.0775 144.321 82.728 144.315 82.3785C144.311 82.1328 144.361 81.9378 144.58 81.7767C145.899 80.8082 147.143 79.7475 148.348 78.6357C149.342 77.7187 150.283 76.7502 151.184 75.7445C152.408 74.3806 153.541 72.9404 154.585 71.43C154.711 71.248 154.83 71.0614 154.949 70.8748C155.001 70.7933 155.054 70.7119 155.106 70.6308C155.085 70.6053 155.064 70.5798 155.043 70.5542L155.037 70.5477C153.119 71.3833 151.166 72.1197 149.153 72.6753C147.131 73.2333 145.086 73.6806 142.992 73.8995C144.43 72.9462 145.765 71.876 146.97 70.6452C148.168 69.4206 149.22 68.0737 150.095 66.5942C151.227 64.6823 152.16 62.4896 152.132 61.8494C152.015 61.9113 151.911 61.9659 151.807 62.0208C151.422 62.2242 151.039 62.4322 150.656 62.6402C149.807 63.1013 148.958 63.5624 148.086 63.9732C145.47 65.2048 142.748 66.1403 139.94 66.8123C139.705 66.8684 139.469 66.918 139.233 66.9675C139.031 67.0098 138.829 67.0521 138.628 67.0985C138.48 67.1328 138.377 67.1056 138.268 66.9903L138.179 66.8972C137.852 66.5524 137.524 66.207 137.172 65.888C135.721 64.5696 134.132 63.447 132.389 62.559C130.721 61.709 128.972 61.0857 127.145 60.6855C126.006 60.436 124.852 60.2832 123.693 60.2254C123.157 60.1986 122.619 60.2225 122.08 60.2464C121.738 60.2616 121.396 60.2768 121.055 60.2791C120.312 60.284 119.585 60.4049 118.856 60.5261L118.844 60.5281C116.506 60.9172 114.303 61.697 112.219 62.8411C110.15 63.9769 108.312 65.4035 106.702 67.1432C105.712 68.2108 104.835 69.3599 104.072 70.5994C102.753 72.7426 101.839 75.0539 101.293 77.518C100.981 78.9256 100.871 80.3567 100.789 81.7895C100.752 82.4293 100.777 83.079 100.843 83.7171C100.915 84.4104 101.016 85.1003 101.117 85.7903C101.161 86.0885 101.205 86.3867 101.246 86.6851C101.266 86.8318 101.283 86.9792 101.301 87.1242C101.074 87.2468 100.867 87.2119 100.661 87.1772C100.602 87.1672 100.542 87.1572 100.483 87.151C100.185 87.1207 99.8857 87.099 99.5867 87.0774C99.2143 87.0504 98.8419 87.0234 98.4713 86.9796C97.1973 86.8293 95.9228 86.6781 94.6554 86.484C91.5386 86.0065 88.488 85.24 85.4911 84.2541C82.1008 83.1389 78.8325 81.7329 75.6844 80.0371C73.946 79.1003 72.237 78.1132 70.6144 76.9827C69.3404 76.0951 68.0734 75.1939 66.8385 74.2514C65.2779 73.0606 63.7858 71.7823 62.3809 70.4044C62.1747 70.2022 61.9674 70.0008 61.7601 69.7995C61.067 69.1262 60.3736 68.4526 59.7184 67.7433C59.0424 67.0117 58.3949 66.2532 57.7475 65.4947C57.446 65.1415 57.1445 64.7883 56.8401 64.4378C56.8023 64.3942 56.757 64.3571 56.7005 64.3109C56.6698 64.2859 56.6358 64.2581 56.598 64.2251C54.4373 68.1105 53.4291 72.2279 53.7185 76.6486C54.1849 83.7741 57.4272 89.3405 63.0524 93.5658C59.6809 93.4229 56.5413 92.5014 53.5485 90.9125C53.4817 96.1422 55.0109 100.809 58.2169 104.888C61.4172 108.961 65.5669 111.532 70.5614 112.747C69.797 113.009 69.0269 113.159 68.2487 113.254L68.2075 113.259C67.4318 113.354 66.6531 113.449 65.8735 113.475C65.0912 113.501 64.3035 113.468 63.522 113.407C62.9794 113.365 62.4391 113.291 61.8736 113.213C61.6208 113.178 61.3629 113.143 61.0975 113.109C62.1453 116.425 63.818 119.291 66.1679 121.716Z" fill="white"/>
</svg>
